<svg width="250" height="250" viewBox="0 0 250 250" fill="none" xmlns="http://www.w3.org/2000/svg">
<path d="M86.6695 187.331L87.9472 154.548L48.1261 205.851C47.1323 207.696 45.9966 212.195 49.4037 215.431C52.8109 218.666 56.9279 216.779 58.5605 215.431L86.6695 187.331Z" fill="#212121"/>
<path d="M42.3765 37.8919L68.1431 69.6105L93.6968 62.5856L53.6627 28.9511C51.4622 28.0287 46.4225 26.7798 43.8671 29.164C41.3118 31.5482 41.8086 35.976 42.3765 37.8919Z" fill="#212121"/>
<path d="M23.2112 100.052C22.1891 95.2833 27.4702 92.5301 30.2385 91.7496C50.2555 86.2858 90.8433 75.1878 93.0579 74.5066C95.2726 73.8254 102.641 72.9455 106.048 72.5907H138.203C141.099 72.5907 151.476 73.7261 156.303 74.2937L219.974 91.9625C222.317 92.4592 226.917 94.7298 226.576 99.8389C226.235 104.948 222.317 106.651 220.4 106.864L149.915 101.542L149.702 144.117L153.748 219.688C154.103 222.101 153.407 227.139 147.785 227.99C142.164 228.842 140.048 225.081 139.693 223.094L126.704 151.355C126.491 150.574 125.852 149.013 125 149.013C124.148 149.013 123.509 150.574 123.296 151.355L109.668 224.158C109.1 225.294 106.985 227.65 103.066 227.99C99.1482 228.331 96.891 224.3 96.2521 222.243L100.085 141.137V101.542L30.0256 106.864C28.18 106.58 24.2334 104.82 23.2112 100.052Z" fill="#212121"/>
<path d="M146.721 41.9366C146.721 52.8704 137.854 61.7341 126.917 61.7341C115.979 61.7341 107.112 52.8704 107.112 41.9366C107.112 31.0027 115.979 22.1391 126.917 22.1391C137.854 22.1391 146.721 31.0027 146.721 41.9366Z" fill="#212121"/>
<path d="M196.976 28.3125L156.303 62.5856L181.857 69.3976L207.411 37.8919C208.901 36.1889 208.39 30.569 205.494 28.5254C202.598 26.4818 198.609 27.532 196.976 28.3125Z" fill="#212121"/>
<path d="M163.543 187.544L161.84 154.122L201.022 205C202.584 206.986 204.6 211.854 200.17 215.431C195.741 219.007 191.511 215.927 189.949 213.94L163.543 187.544Z" fill="#212121"/>
<path d="M27.8961 66.6302C29.8126 63.6499 35.7751 54.922 38.3305 51.7289L31.5162 42.3623C30.6644 43.4267 28.6201 45.9387 27.2572 47.4714C25.5537 49.3872 21.5077 55.3478 20.4429 57.0508C19.3782 58.7538 16.3969 63.8628 15.5451 65.1401C14.6934 66.4173 10.8603 74.5066 10.0085 76.2096C9.15673 77.9126 6.60136 85.5762 5.96252 87.4921C5.32368 89.4079 3.40716 96.4329 2.76831 98.3487C2.12947 100.265 1.06474 107.928 0.638842 111.334C0.212947 114.74 0 120.275 0 123.042C0 125.81 0.212947 134.112 0.425894 137.092C0.638842 140.072 1.06474 142.627 1.49063 144.756C1.49063 146.884 4.046 156.89 4.47189 158.806C4.89779 160.721 8.94378 172.217 10.0085 174.558C11.0733 176.9 14.2675 183.499 15.1193 184.989C15.971 186.479 20.017 193.504 21.2947 194.994C22.5724 196.485 25.5537 200.955 27.6831 203.51C29.8126 206.064 32.368 209.044 33.4327 210.109L35.5622 212.237L38.7564 199.465C38.3305 198.826 37.0954 197.081 35.5622 195.207C33.6457 192.866 29.1738 186.905 28.109 184.989C27.0443 183.073 22.1465 173.92 21.0818 171.578C20.017 169.236 17.2487 161.999 15.7581 156.677C14.2675 151.355 12.9898 146.246 12.5639 142.84C12.138 139.434 11.7121 131.557 11.4991 126.448C11.2862 121.339 11.7121 115.805 12.138 111.973C12.5639 108.141 13.4157 102.606 14.9063 97.2844C16.3969 91.9625 20.23 81.7444 21.9336 77.9126C23.6371 74.0809 25.9796 69.6105 27.8961 66.6302Z" fill="#212121"/>
<path d="M67.5043 14.2627C65.1192 15.4548 61.3998 17.7397 59.8382 18.7331L68.7819 26.3966C74.6735 23.7002 87.4787 17.9667 91.5673 16.6043C96.678 14.9013 107.112 12.9854 111.797 12.3468C116.482 11.7082 122.019 11.4953 126.278 11.4953C130.537 11.4953 136.286 12.1339 139.48 12.3468C142.675 12.5597 149.276 13.8369 151.831 14.4756C154.387 15.1142 162.692 17.8816 164.182 18.5202C165.673 19.1588 171.422 21.5005 173.552 22.5649C175.256 23.4164 179.231 25.4742 181.005 26.3966L190.162 18.7331C187.961 17.4558 183.092 14.6459 181.218 13.6241C178.876 12.3468 174.404 10.4309 171.848 9.36655C169.293 8.30217 164.821 6.81203 162.053 5.96053C159.284 5.10903 152.257 3.40602 149.702 2.76739C147.147 2.12876 138.629 1.06438 136.073 0.638628C133.518 0.212876 126.917 0 124.574 0C122.232 0 116.482 0.425752 114.353 0.638628C112.223 0.851504 106.687 1.70301 104.557 1.91588C102.428 2.12876 95.4003 3.83177 92.632 4.4704C89.8637 5.10903 82.8365 7.45066 79.8552 8.51504C76.8739 9.57942 70.4855 12.7726 67.5043 14.2627Z" fill="#212121"/>
<path d="M220.187 63.2242C218.313 60.3291 213.728 54.3544 211.67 51.7289L218.697 42.5752C220.613 44.9878 225.17 50.8348 228.066 54.922C231.687 60.031 231.261 59.6053 233.816 63.6499C236.371 67.6946 239.566 75.571 242.121 81.7444C244.676 87.9178 244.463 88.5564 246.167 94.0912C247.871 99.626 248.509 106.651 249.148 110.27C249.787 113.889 250 122.829 250 126.235C250 129.642 249.361 138.369 248.935 141.137C248.509 143.904 247.445 150.716 246.38 154.335C245.315 157.954 243.825 163.702 242.121 168.385C240.417 173.068 238.075 178.177 236.158 182.435C234.242 186.692 228.492 195.207 225.298 199.678C222.743 203.254 218.129 208.406 216.141 210.534L211.457 199.039C214.296 195.349 220.4 187.288 222.104 184.564C224.233 181.158 227.853 173.707 229.131 170.939C230.409 168.172 234.668 156.038 235.52 152.206C236.371 148.375 238.288 137.731 238.501 133.899C238.714 130.067 238.927 120.914 238.714 116.869C238.501 112.824 237.436 106.012 236.371 101.542C235.307 97.0715 232.538 88.1307 230.622 83.2345C228.705 78.3384 222.53 66.8431 220.187 63.2242Z" fill="#212121"/>
<path d="M79.6422 229.48C75.3833 227.777 69.7757 224.513 67.5043 223.094L55.3663 228.842C59.9091 231.68 69.6763 237.655 72.402 238.847C75.8092 240.337 89.0119 245.02 95.1874 246.298C101.363 247.575 112.01 249.704 117.973 249.916C123.935 250.129 131.814 249.916 137.351 249.491C142.888 249.065 147.359 248.213 152.683 247.149C158.007 246.085 163.118 244.169 168.654 242.04C174.191 239.911 181.431 236.505 184.412 234.802C186.797 233.44 192.362 229.977 194.847 228.416L182.496 223.094C180.082 224.513 174.319 227.82 170.571 229.693C165.886 232.035 157.368 234.164 153.109 235.654C148.85 237.144 141.184 237.783 136.499 238.208C131.814 238.634 119.889 238.847 115.204 238.634C110.52 238.421 103.279 236.931 97.9557 235.867C92.632 234.802 84.9659 231.609 79.6422 229.48Z" fill="#212121"/>
</svg>
